<?xml version="1.0" standalone="no"?>
<!DOCTYPE svg PUBLIC "-//W3C//DTD SVG 20010904//EN"
 "http://www.w3.org/TR/2001/REC-SVG-20010904/DTD/svg10.dtd">
<svg version="1.0" xmlns="http://www.w3.org/2000/svg"
 width="400.000000pt" height="400.000000pt" viewBox="0 0 400.000000 400.000000"
 preserveAspectRatio="xMidYMid meet">
<metadata>
Created by potrace 1.14, written by Peter Selinger 2001-2017
</metadata>
<g transform="translate(0.000000,400.000000) scale(0.100000,-0.100000)"
fill="#000000" stroke="none">
<path d="M1576 2743 c-4 -4 -16 -9 -27 -9 -10 -1 -20 -2 -21 -4 -2 -1 -16 -3
-33 -5 -73 -8 -106 -15 -126 -25 -17 -10 -20 -9 -13 2 6 10 5 11 -8 1 -8 -7
-18 -10 -21 -6 -4 3 -7 1 -7 -5 0 -6 -7 -9 -15 -6 -8 4 -15 2 -15 -3 0 -5 -14
-10 -31 -11 -18 -1 -37 -6 -43 -9 -11 -8 -32 -13 -53 -15 -7 -1 -13 -6 -13
-11 0 -6 -3 -8 -6 -5 -3 4 -20 0 -39 -7 -18 -8 -35 -11 -39 -8 -3 4 -6 1 -6
-5 0 -7 -3 -11 -7 -10 -5 1 -21 -5 -38 -12 -16 -7 -33 -13 -37 -12 -5 1 -8 -2
-8 -7 0 -8 -40 -27 -48 -22 -1 1 -13 -10 -26 -24 -13 -13 -26 -22 -29 -18 -4
3 -7 0 -7 -7 0 -7 -3 -10 -6 -7 -4 4 -14 -1 -23 -11 -9 -10 -29 -28 -46 -41
-16 -12 -30 -26 -30 -29 0 -4 -21 -28 -47 -53 -29 -28 -50 -59 -54 -78 -4 -17
-11 -31 -16 -31 -6 0 -8 -7 -4 -15 3 -8 0 -14 -7 -12 -7 1 -12 -8 -11 -19 0
-16 -4 -20 -15 -16 -9 3 -13 1 -8 -3 4 -5 0 -19 -8 -32 -9 -13 -12 -23 -8 -23
5 0 1 -5 -7 -10 -13 -8 -13 -10 -1 -10 11 0 10 -4 -4 -14 -12 -8 -16 -20 -12
-35 3 -13 1 -19 -5 -15 -6 4 -9 1 -6 -7 3 -8 -2 -20 -11 -27 -14 -11 -14 -11
1 -6 13 4 16 0 14 -20 -1 -14 -6 -29 -9 -33 -4 -3 -7 -16 -7 -27 0 -17 -2 -18
-10 -6 -6 10 -8 5 -6 -19 1 -18 9 -37 17 -42 8 -5 9 -9 3 -9 -12 0 -11 -41 1
-59 4 -7 -1 -8 -12 -4 -15 6 -16 4 -6 -8 10 -12 10 -18 0 -28 -9 -9 -9 -14 3
-21 13 -8 13 -10 1 -10 -11 0 -10 -4 5 -16 13 -11 14 -14 3 -11 -19 6 -19 -17
0 -52 7 -13 8 -21 3 -17 -6 3 -13 2 -17 -4 -3 -5 -1 -10 6 -10 6 0 9 -8 6 -19
-3 -14 -1 -18 10 -14 11 4 14 1 11 -8 -3 -8 2 -20 11 -27 14 -10 13 -11 -4 -5
-20 6 -20 6 -1 -15 11 -12 16 -25 13 -29 -4 -3 -7 0 -7 7 0 7 -2 11 -5 8 -10
-10 7 -38 19 -31 6 4 3 -5 -7 -20 -9 -14 -17 -37 -17 -49 0 -16 -3 -19 -8 -10
-6 9 -12 5 -22 -13 -7 -14 -19 -25 -26 -25 -8 0 -11 -6 -8 -15 4 -8 -1 -17
-10 -21 -14 -5 -14 -9 -4 -22 10 -12 10 -14 1 -9 -8 5 -15 -1 -19 -18 -3 -14
-10 -25 -15 -25 -4 0 -6 -9 -4 -20 2 -11 0 -20 -6 -20 -5 0 -9 -5 -9 -11 0 -5
6 -7 13 -3 8 5 8 3 -2 -9 -7 -9 -18 -14 -24 -10 -5 3 -7 1 -3 -5 3 -6 2 -13
-3 -17 -6 -3 -8 -12 -4 -21 3 -8 2 -14 -3 -12 -5 2 -9 0 -9 -4 0 -4 -11 -15
-24 -24 -18 -13 -20 -18 -10 -25 11 -7 11 -9 -1 -9 -17 0 -42 -48 -33 -63 4
-6 1 -7 -6 -3 -8 5 -11 3 -10 -5 4 -23 -27 -84 -35 -68 -3 8 -4 4 -2 -8 2 -13
0 -23 -6 -23 -5 0 -6 -4 -3 -10 3 -5 1 -10 -4 -10 -6 0 -11 -3 -10 -7 2 -16
-14 -53 -22 -53 -5 0 -9 -6 -9 -13 0 -7 -9 -23 -20 -35 -12 -12 -17 -22 -13
-22 4 0 -1 -7 -11 -15 -11 -8 -16 -15 -10 -15 5 0 0 -7 -10 -15 -11 -8 -16
-15 -11 -15 5 0 0 -7 -11 -16 -10 -8 -12 -13 -4 -9 8 4 5 -2 -6 -12 -12 -10
-21 -28 -19 -40 1 -12 -1 -22 -4 -21 -17 2 -31 -3 -30 -10 3 -19 -2 -31 -14
-28 -6 1 -9 1 -4 -1 14 -9 7 -35 -8 -29 -12 4 -14 0 -11 -20 4 -21 2 -23 -9
-14 -11 9 -13 -30 -14 -235 l-2 -245 1771 0 c1869 0 1800 -2 1800 41 0 7 3 10
6 6 8 -8 33 16 27 26 -2 4 1 7 8 7 7 0 9 3 6 7 -4 3 -2 12 4 20 9 10 8 13 0
13 -7 0 -9 5 -6 10 3 6 -3 22 -14 36 -12 15 -21 23 -21 18 0 -5 -5 -2 -10 6
-6 10 -26 15 -59 16 -60 1 -105 26 -98 55 3 10 1 22 -4 25 -5 3 -7 10 -4 15 4
5 2 9 -4 9 -5 0 -8 8 -6 17 1 10 -2 26 -7 36 -10 19 -19 53 -20 75 -1 6 -4 12
-8 12 -4 0 -7 6 -8 13 0 6 -3 23 -7 37 -4 14 -9 37 -12 52 -3 16 -9 28 -13 28
-5 0 -7 8 -5 18 1 9 -2 23 -8 30 -5 6 -7 12 -4 12 4 0 0 18 -8 40 -8 22 -11
40 -8 40 4 0 2 5 -5 12 -7 7 -12 22 -12 35 0 13 -4 23 -8 23 -5 0 -9 6 -10 13
-5 38 -9 54 -16 65 -4 7 -10 24 -12 39 -3 15 -10 33 -16 40 -6 7 -7 13 -2 13
4 0 3 5 -4 12 -7 7 -12 21 -12 33 0 12 -5 26 -12 33 -7 7 -9 12 -5 12 3 0 2
12 -4 27 -10 26 -16 48 -23 80 -1 7 -5 16 -9 19 -4 4 -7 18 -7 31 0 13 -4 23
-8 23 -4 0 -9 8 -10 18 -5 48 -7 57 -12 62 -3 3 -11 16 -18 29 -11 18 -11 21
-1 15 7 -4 3 7 -10 24 -12 18 -20 36 -17 41 3 5 0 11 -7 14 -11 4 -18 29 -21
84 0 11 -5 19 -10 16 -4 -3 -5 5 0 18 4 13 9 42 10 64 1 22 3 40 4 40 1 0 3
16 4 35 1 19 5 41 9 48 5 7 4 12 -2 12 -6 0 -8 7 -5 15 4 8 10 12 15 9 5 -3 9
0 9 5 0 6 -6 11 -12 11 -10 0 -10 2 0 8 6 5 12 19 12 33 0 13 0 33 0 44 0 47
-2 55 -11 55 -6 0 -8 4 -5 9 3 5 -1 25 -9 44 -8 19 -11 37 -8 41 4 3 2 6 -4 6
-5 0 -10 6 -11 13 -5 39 -9 54 -17 66 -6 10 -4 12 6 7 9 -5 9 -3 -1 6 -9 7
-14 21 -12 32 3 13 0 16 -10 10 -11 -6 -11 -5 0 8 10 12 10 17 -1 27 -8 6 -18
7 -23 3 -4 -4 -2 1 5 11 10 12 10 17 2 17 -7 0 -9 5 -6 10 3 6 2 10 -2 10 -5
0 -9 9 -10 19 -2 27 -33 72 -44 65 -6 -3 -8 6 -5 20 3 14 0 29 -6 32 -7 4 -8
2 -4 -4 4 -7 1 -12 -9 -12 -9 0 -14 4 -11 8 2 4 1 14 -5 22 -7 13 -9 13 -10 0
0 -8 -7 1 -14 20 -9 24 -14 29 -14 15 -1 -17 -3 -17 -19 8 -10 15 -22 24 -26
20 -4 -5 -7 -3 -5 2 1 6 -1 18 -6 28 -6 15 -10 15 -23 5 -12 -10 -14 -10 -8 0
4 7 2 12 -4 12 -6 0 -8 5 -5 10 4 6 3 10 -2 9 -4 -1 -19 -1 -33 0 -20 1 -22 3
-10 11 13 9 13 10 0 11 -8 1 -18 1 -22 0 -5 0 -8 3 -8 7 0 5 -16 14 -35 22
-19 8 -35 18 -35 22 0 5 -4 7 -9 3 -6 -3 -14 3 -20 12 -8 14 -10 15 -11 3 0
-13 -1 -13 -10 0 -5 8 -10 11 -10 6 0 -5 -7 -2 -16 5 -21 17 -80 39 -143 53
-11 3 -28 9 -38 14 -10 5 -26 8 -35 7 -10 -2 -20 0 -23 5 -2 4 -16 6 -30 5
-14 -2 -25 0 -25 4 0 4 -10 7 -22 8 -68 3 -170 13 -178 18 -5 3 -11 1 -15 -4
-4 -7 -15 -7 -32 0 -19 7 -28 6 -33 -2 -5 -8 -9 -8 -14 0 -8 12 -293 10 -313
-2 -6 -4 -13 -2 -15 4 -2 5 -7 7 -12 2z m-1038 -868 c-3 -3 -9 2 -12 12 -6 14
-5 15 5 6 7 -7 10 -15 7 -18z"/>
</g>
</svg>
